<?xml version="1.0" encoding="UTF-8"?>
<svg width="63px" height="90px" viewBox="0 0 63 90" version="1.1" xmlns="http://www.w3.org/2000/svg" xmlns:xlink="http://www.w3.org/1999/xlink">
    <!-- Generator: Sketch 52.2 (67145) - http://www.bohemiancoding.com/sketch -->
    <title>Logo-Red</title>
    <desc>Created with Sketch.</desc>
    <g id="Logo-Red" stroke="none" stroke-width="1" fill="none" fill-rule="evenodd">
        <g id="Logo-red">
            <path d="M61.9938427,56.8084348 C60.8356219,49.2680763 55.9485095,20.3434972 55.6400842,18.8908435 C53.381189,8.23548798 43.2380363,0.197116293 31.0667654,0.197116293 C18.8767722,0.197116293 8.72080949,8.26031966 6.48300155,18.9401127 C6.181671,20.3775915 1.46286225,49.3116303 0.311539128,56.8111938 C0.106382099,58.1487546 -3.94153755e-05,59.5152857 -3.94153755e-05,60.905466 C-3.94153755e-05,76.8336134 13.9474854,89.7458933 31.1526909,89.7458933 C48.3582906,89.7458933 62.3054213,76.8336134 62.3054213,60.905466 C62.3054213,59.5146944 62.1991968,58.1463897 61.9938427,56.8084348" id="Fill-1" fill="#98262C"></path>
            <path d="M30.8872678,41.2237898 L20.5892323,46.9386277 L19.7248532,45.3813262 L30.8872678,39.1868058 L30.8872678,35.4306927 C26.6359251,34.9275003 23.3276944,31.3011235 23.3276944,26.9166811 C23.3276944,22.1890039 27.1738467,18.3428515 31.9013269,18.3428515 C36.628807,18.3428515 40.4749593,22.1890039 40.4749593,26.9166811 C40.4749593,31.3856572 37.0379309,35.0670544 32.6684486,35.456298 L32.6684486,39.1929002 L32.6883534,39.1570471 L43.9043926,45.3813262 L43.0400134,46.9386277 L32.6684486,41.1830862 L32.6684486,53.3775574 L32.7296607,53.3420299 L41.456599,68.3779905 L46.1900903,68.3779905 L46.1900903,70.1591713 L40.434963,70.1591713 L40.4322134,70.1607677 L31.7317607,55.1710792 L22.6923974,70.1592305 L22.6892638,70.1573406 L22.6892638,70.1591713 L16.9036779,70.1591713 L16.9036779,68.3779905 L21.6864534,68.3779905 L30.8872678,53.1218298 L30.8872678,41.2237898 Z M31.9013269,20.1240324 C28.1558808,20.1240324 25.1088752,23.171235 25.1088752,26.9166811 C25.1088752,30.6619301 28.1558808,33.7091328 31.9013269,33.7091328 C35.6465758,33.7091328 38.6937785,30.6619301 38.6937785,26.9166811 C38.6937785,23.171235 35.6465758,20.1240324 31.9013269,20.1240324 Z" id="Combined-Shape" fill="#FFFFFF"></path>
            <path d="M7.8946041,74.8109345 L11.2378163,70.0058061 L11.6999615,70.6072847 L10.0366327,72.9524996 C9.58158217,73.5967439 9.16634119,74.1700405 8.73612237,74.6836229 L8.74597621,74.6962358 C9.35139638,74.4246639 10.0470778,74.1751645 10.7723207,73.9236944 L13.5189811,72.9745722 L13.9760024,73.5693502 L8.36640615,75.4250261 L7.8946041,74.8109345 Z M14.7910532,74.8509806 C14.6245233,75.0352474 14.3588636,75.0547581 14.1558745,74.8586666 C13.9757462,74.6850418 13.9859942,74.418791 14.1584365,74.2400422 C14.336791,74.0555783 14.608363,74.0415858 14.7940094,74.2209258 C14.9855681,74.4055868 14.9694078,74.6663195 14.7910532,74.8509806 Z M10.6577599,77.9945538 L13.4404854,75.1117133 L13.9511116,75.6049967 L11.1685831,78.4876402 L10.6577599,77.9945538 Z M17.7904056,80.4037792 C17.8558352,80.2983431 17.9056956,80.2025638 17.9307244,80.1012662 C18.0440436,79.6747919 17.9330893,79.1962892 17.4943962,78.9235348 C16.9187346,78.5656432 16.1972362,78.8090332 15.7076972,79.5961582 C15.2928504,80.2642488 15.2766901,81.0239802 15.927635,81.4287761 C16.2975483,81.6587648 16.7817662,81.628612 17.1570006,81.315851 C17.2567215,81.2316992 17.3444207,81.120942 17.4102443,81.0155059 L17.7904056,80.4037792 Z M19.2483804,79.4489418 C19.0818504,79.6864194 18.8977806,79.952079 18.639807,80.3669259 L17.4122151,82.3420303 C16.9272089,83.1222577 16.4792532,83.5063605 15.973751,83.6015487 C15.4591833,83.7103351 14.9320026,83.5193676 14.5140026,83.2592261 C14.1164985,83.0120917 13.7390963,82.641193 13.5853763,82.2921699 L14.0289964,81.9149647 C14.1608408,82.1918578 14.4249238,82.5314212 14.8362233,82.787227 C15.4528768,83.1705415 16.1107194,83.1212723 16.6436153,82.2637908 L16.8795163,81.8842208 L16.865918,81.8757464 C16.4841801,82.0769619 15.9705978,82.1082972 15.4566213,81.7888355 C14.6344165,81.2776181 14.4907475,80.1942865 15.0760658,79.2522591 C15.7926373,78.0995564 16.9323329,77.9016912 17.6930497,78.3746757 C18.2685142,78.7325673 18.3914901,79.2378724 18.3609432,79.608574 L18.3745415,79.6170484 L18.7208056,79.1208088 L19.2483804,79.4489418 Z M22.5218864,79.6730182 C22.6115564,79.4593869 22.8490341,79.3525712 23.0571472,79.4398762 C23.2656546,79.5273784 23.3515801,79.7607174 23.2587569,79.9820347 C23.1724372,80.1881771 22.9465871,80.3089853 22.7305909,80.218527 C22.5074998,80.1249155 22.4353697,79.8791606 22.5218864,79.6730182 Z M21.1378155,79.0926268 C21.2274855,78.8787984 21.472255,78.7749389 21.6803682,78.8626381 C21.8890726,78.9499431 21.974801,79.1834792 21.8819778,79.4047966 C21.7956582,79.610939 21.569611,79.73155 21.3540089,79.6410917 C21.1307208,79.5472831 21.0512988,79.2987692 21.1378155,79.0926268 Z M19.8915014,81.9805913 C19.552135,82.7895919 19.7500002,83.5909065 20.3901059,83.8593252 C21.0150366,84.1214375 21.7369292,83.7150649 22.0857553,82.8830064 C22.3482617,82.2570902 22.3760496,81.3353617 21.6021287,81.010776 C20.8282078,80.6861904 20.1859342,81.2784064 19.8915014,81.9805913 Z M22.7650793,83.1411771 C22.1919798,84.507314 21.0195694,84.7158213 20.1488838,84.3504408 C19.1741415,83.9415063 18.7297332,82.8938456 19.2196663,81.7257709 C19.7379785,80.4893106 20.8309668,80.0951569 21.8283729,80.513354 C22.8626324,80.9471202 23.2390492,82.0113353 22.7650793,83.1411771 Z M24.1860627,82.8067967 C24.3188925,82.3541112 24.4253141,81.9625194 24.507101,81.5983213 L25.1034556,81.7733256 L24.9049992,82.5346336 L24.9361373,82.5436991 C25.2581609,82.0774152 25.7638602,81.8722582 26.2210786,82.0062705 C26.2985298,82.0289343 26.3501639,82.0529777 26.4075133,82.087072 L26.2141809,82.7460971 C26.1489484,82.7098349 26.0815481,82.6814558 25.9885278,82.6542592 C25.5086456,82.5133493 25.058325,82.7864978 24.8111906,83.2837228 C24.7678337,83.3745752 24.7197469,83.4811938 24.6846672,83.6002283 L24.0829915,85.6496307 L23.4091857,85.4519626 L24.1860627,82.8067967 Z M28.9595997,85.7897129 C29.1681071,85.9321995 29.5382174,86.0839487 29.8931529,86.0867078 C30.4094943,86.0906493 30.6534755,85.8277488 30.6560375,85.4966596 C30.6587966,85.149016 30.4585665,84.9568661 29.9357215,84.7544681 C29.2357044,84.4923559 28.9079656,84.092684 28.911513,83.6124076 C28.9164399,82.9669808 29.4288398,82.4411797 30.267796,82.4476833 C30.6633293,82.4508365 31.0093963,82.5692797 31.2261809,82.703489 L31.044476,83.2318522 C30.8919385,83.1313429 30.6105127,82.9965424 30.2474971,82.9935862 C29.8279205,82.990433 29.5920194,83.2369761 29.5898516,83.5351535 C29.5872896,83.8660455 29.8202345,84.0168094 30.3269191,84.2194044 C31.0026957,84.4893997 31.3467919,84.8399995 31.3424563,85.4357629 C31.3371352,86.1391302 30.800889,86.6316254 29.872854,86.6243335 C29.4451972,86.6211803 29.0506492,86.5104231 28.7778948,86.3429077 L28.9595997,85.7897129 Z M33.3278087,84.2419697 L33.3437719,84.2403931 C33.4243764,84.0898263 33.5418342,83.9020121 33.638599,83.7496716 L34.625757,82.2499166 L35.4759467,82.1559109 L34.1571082,83.9587702 L36.1245267,86.1155796 L35.2662569,86.2101765 L33.7160502,84.4490975 L33.400333,84.9004035 L33.5660747,86.3977937 L32.8682254,86.4750478 L32.2226016,80.6327038 L32.9204508,80.5556467 L33.3278087,84.2419697 Z M37.3091952,85.838588 L36.4595968,81.9234588 L37.1535045,81.7726949 L38.0031029,85.6878242 L37.3091952,85.838588 Z M36.9936751,80.6554661 C37.0543748,80.8964912 36.9229245,81.1282536 36.6470169,81.1881649 C36.4024445,81.2413757 36.1870395,81.0848966 36.1342229,80.8420979 C36.0798297,80.5914161 36.219163,80.35788 36.4716185,80.3030927 C36.7315629,80.2467287 36.939479,80.4047843 36.9936751,80.6554661 Z M38.0607479,79.6089288 L38.7406631,79.404363 L40.432174,85.0324845 L39.7522587,85.2370503 L38.0607479,79.6089288 Z M39.8788806,79.0157668 L40.5408619,78.7593698 L42.6639711,84.2386982 L42.0017927,84.4950952 L39.8788806,79.0157668 Z M42.9965186,80.965941 C42.7966826,80.6035167 42.6256199,80.3102663 42.4447033,80.0321908 L42.9957303,79.7281012 L43.3508628,80.2883907 L43.3646582,80.2805077 C43.3506657,79.8534421 43.5664649,79.3093128 44.1312872,78.9973401 C44.6044688,78.7364103 45.4991978,78.6207262 46.1627557,79.8234864 L47.3178233,81.9178224 L46.6962428,82.2609332 L45.5809848,80.2391215 C45.2692091,79.673905 44.8046989,79.3158163 44.2181981,79.6396137 C43.8084753,79.8654638 43.6545583,80.337857 43.7446224,80.7515214 C43.7601915,80.8469066 43.8059133,80.963182 43.8658247,81.0719684 L45.0289724,83.1808881 L44.407589,83.5238018 L42.9965186,80.965941 Z M49.1534367,77.9711017 C48.5419072,78.4470423 47.9481145,79.1109943 48.439033,79.7148379 C48.7368162,80.0810067 49.115795,80.0609049 49.3974179,79.8319016 C49.7919658,79.5112575 49.833549,79.0508859 49.7070257,78.7160523 C49.6786466,78.6429368 49.6394283,78.5684417 49.5923269,78.5106982 L49.1534367,77.9711017 Z M50.5246976,79.4915498 L50.1622733,79.1354319 L50.1433539,79.1506068 C50.1729154,79.5323447 50.0249107,80.0153801 49.5927211,80.3663741 C48.9790237,80.8653727 48.305612,80.6767701 47.9402315,80.2268436 C47.3292931,79.4753895 47.6465869,78.5349386 48.8223476,77.5893638 L48.7703193,77.5253138 C48.5614178,77.2685226 48.1166153,76.861953 47.4966114,77.3658786 C47.2149886,77.5948819 46.9936712,77.9240003 46.895724,78.2383379 L46.467476,77.9675543 C46.5821747,77.5970498 46.8567028,77.192648 47.2384407,76.8820549 C48.1652933,76.12863 48.918324,76.5943226 49.4246145,77.2172826 L50.3697952,78.3800362 C50.5889447,78.6496374 50.8159773,78.9030782 51.02547,79.084389 L50.5246976,79.4915498 Z M52.3574732,74.1485 C52.2881021,74.0897711 52.1881841,74.0154731 52.1028499,73.9750724 C51.6814995,73.7555287 51.1407205,73.804995 50.7964272,74.2111705 C50.3218661,74.771263 50.5451542,75.5319797 51.2207338,76.104291 C51.8395552,76.6287125 52.6014544,76.7666664 53.0971027,76.1817422 C53.4047397,75.8187266 53.4402136,75.2775535 53.1071536,74.8260503 C53.0470452,74.743278 52.9764917,74.6729216 52.8878071,74.5978353 L52.3574732,74.1485 Z M50.1456794,71.3433078 L53.8396884,74.4734798 C54.1110632,74.7034685 54.4255979,74.9596685 54.6496744,75.1179212 L54.2375866,75.6043069 L53.6863626,75.1792121 L53.6757204,75.1916279 C53.8759505,75.6468755 53.8270755,76.2294348 53.4149877,76.7156234 C52.8048377,77.4359394 51.7100756,77.460377 50.7818436,76.6736461 C49.7599999,75.8183324 49.6565346,74.6729216 50.2722027,73.9466933 C50.6580793,73.4910516 51.1399322,73.3706376 51.5009771,73.4437531 L51.5114222,73.4313373 L49.6864903,71.8850721 L50.1456794,71.3433078 Z" id="Combined-Shape" fill="#FFFFFF"></path>
            <path d="M16.3647712,20.1813817 C16.7313342,19.771856 16.9299877,19.4665839 16.9605346,19.2649743 C16.9912786,19.0635617 16.8273107,18.7774061 16.4686307,18.4074928 L12.3288338,14.1342748 C11.9863142,13.780916 11.7076475,13.6100503 11.4926367,13.6212837 C11.2778229,13.6325171 10.9642735,13.8195431 10.5525799,14.1821645 L10.3797435,14.0038099 L13.2426793,11.230347 L13.4153187,11.4085045 C13.0396901,11.8087677 12.8430074,12.1162076 12.8248763,12.3306272 C12.8069424,12.545244 12.9691366,12.8290347 13.3112621,13.1821964 L17.451256,17.4554144 C17.809936,17.8255247 18.0903764,17.9985582 18.2927743,17.9741207 C18.4951723,17.9500773 18.8067508,17.7610806 19.227707,17.4075247 L19.4003464,17.5858793 L16.5374106,20.3595392 L16.3647712,20.1813817 Z M19.5887322,16.6073531 C19.8802089,16.4258453 20.0579722,16.2725195 20.1224163,16.1471786 C20.2219402,15.9554228 20.1862692,15.6905515 20.0154036,15.3523676 L18.4916052,12.3394563 C18.3461624,12.0519211 18.2127414,11.8828292 18.091145,11.8319833 C17.9697456,11.7811375 17.8207555,11.800254 17.6447658,11.8893327 C17.5625848,11.9309159 17.5030676,11.9659956 17.46582,11.9945718 C17.4287696,12.0231479 17.3875805,12.0609867 17.342647,12.107891 L17.2393787,11.9039164 L17.591358,11.5503605 C17.7184726,11.4228517 17.9226442,11.2048847 18.20407,10.8966565 C18.4856929,10.5884282 18.6360625,10.4293872 18.6555731,10.4193363 C18.6750837,10.4094824 18.6918353,10.4132269 18.7056307,10.4307667 C18.719229,10.4483066 18.739922,10.4839775 18.7675128,10.5385678 L19.165411,11.3252987 C19.3758891,10.7795928 19.588338,10.3684904 19.8021664,10.0919916 C20.0159948,9.81549272 20.2718006,9.60205846 20.5691896,9.45149173 C20.9722118,9.24771423 21.3620299,9.22150301 21.7380526,9.37266097 C21.9380856,9.45700988 22.1428485,9.60462046 22.3529324,9.8156898 C22.4950249,9.37778497 22.6382998,9.03447705 22.7829542,8.78576603 C23.0328477,8.35692675 23.351521,8.0445599 23.7389741,7.84866548 C24.3688318,7.52999217 24.9182822,7.57177247 25.386931,7.9738093 C25.653576,8.20005355 25.9442644,8.62376884 26.258602,9.24554639 L27.4818582,11.6640738 C27.6213886,11.9399815 27.7776706,12.0962634 27.9510982,12.1329197 C28.1245259,12.169576 28.3793463,12.1226717 28.7161507,11.9914185 L28.7928136,12.1427736 L26.1454799,13.4815168 L26.0629047,13.3185342 C26.3876874,13.1151509 26.5772753,12.9340372 26.6318656,12.774602 C26.6864559,12.6151668 26.6322598,12.3743389 26.4690801,12.0519211 L25.1987226,9.53997924 C25.0081492,9.16316825 24.8264443,8.90618001 24.6540021,8.7690145 C24.3479417,8.52365379 23.9837436,8.50769056 23.5612108,8.72151897 C23.3067845,8.85021017 23.0967006,9.06147658 22.9307618,9.35512113 C22.8349825,9.52539555 22.7356557,9.77095334 22.6323875,10.0914003 L24.1416022,13.0753414 C24.3006432,13.3900731 24.4772241,13.6007483 24.6713448,13.707564 C24.8652685,13.8143796 25.1453147,13.7826503 25.5112865,13.6121788 L25.5877523,13.7637309 L22.8937114,15.1261233 L22.8170485,14.9747683 C23.1650863,14.7400497 23.356645,14.5309512 23.3917247,14.3474726 C23.4266073,14.163994 23.3124998,13.8118176 23.049205,13.2911405 L22.2254237,11.6626943 C21.9235019,11.0655514 21.6763675,10.6743538 21.4846117,10.4891015 C21.1627852,10.1735814 20.7924777,10.1217502 20.3738864,10.3334108 C20.1350293,10.4542189 19.9332225,10.6378945 19.7682692,10.8848319 C19.6031188,11.1319663 19.4856609,11.4047207 19.4156987,11.7034892 L21.0279846,14.8914048 C21.1773689,15.186823 21.3324684,15.3645864 21.493086,15.4248919 C21.6537037,15.4850003 21.9091153,15.4290305 22.2593209,15.2565882 L22.3359838,15.4083374 L19.6653951,16.7589053 L19.5887322,16.6073531 Z M31.4842531,11.9561221 C31.7087236,12.1039297 31.9745803,12.179016 32.281429,12.1817751 C32.7550048,12.1859137 33.1617715,11.9557279 33.5011378,11.4912177 C33.8407013,11.0269046 34.014326,10.3771421 34.0216179,9.54232446 C34.0285156,8.74219234 33.8596207,8.14288155 33.5145391,7.74399795 C33.1694574,7.34531143 32.7666323,7.14389886 32.3060636,7.13995732 C31.9816751,7.13700117 31.6846803,7.23337176 31.4154732,7.42867495 C31.1464633,7.62437229 31.0108744,7.81750763 31.0091007,8.00886927 L30.9803275,11.2896081 C31.0916759,11.5864058 31.2595854,11.8083144 31.4842531,11.9561221 Z M28.8607657,15.1753728 C29.2704885,15.1529061 29.5314183,15.068163 29.6437521,14.9209466 C29.7558889,14.7739273 29.8136324,14.5415736 29.8163915,14.2238857 L29.8717701,7.95427898 C29.8747262,7.62358398 29.8359021,7.41093803 29.7556918,7.3165382 C29.6750873,7.22233546 29.5233381,7.17405162 29.299853,7.17208085 C29.251372,7.1716867 29.2064385,7.17365747 29.1648553,7.17740193 C29.123075,7.18154054 29.0627695,7.18962069 28.9837416,7.20203654 L28.9857124,6.98643443 L29.6122198,6.78955463 C29.6342924,6.78541602 30.0761388,6.63918497 30.938153,6.35066443 C30.9600286,6.3508615 30.976583,6.36071535 30.9874223,6.38042303 C30.9980644,6.40013072 31.0035826,6.42299164 31.0031884,6.44920286 L30.9955024,7.33053066 C31.2873733,7.04575457 31.5435732,6.83488231 31.7639052,6.69732265 C32.1610151,6.45728302 32.5675847,6.33883981 32.9840081,6.34258427 C33.5894283,6.34770827 34.1077405,6.60784975 34.5395359,7.12281163 C34.9711343,7.63757644 35.1833861,8.33877597 35.175503,9.22601607 C35.167817,10.0959134 34.898807,10.8830385 34.3686702,11.5871941 C33.8383364,12.291744 33.1763551,12.6401759 32.3827266,12.6332782 C32.1371688,12.6311104 31.9247199,12.5987898 31.745577,12.5361193 C31.4657278,12.4423107 31.2083454,12.2724304 30.973824,12.0266756 L30.9549046,14.1685071 C30.950963,14.6081856 31.0209253,14.8787721 31.1647915,14.9802667 C31.3086576,15.0815643 31.6237835,15.1519207 32.1101692,15.191139 L32.1081985,15.4195511 L28.858992,15.390975 L28.8607657,15.1753728 Z M39.1165676,4.6128011 C39.2827034,4.52451066 39.4575106,4.50953282 39.6415804,4.56786758 C39.8211174,4.62501987 39.9549326,4.73676246 40.0424347,4.90329242 C40.1299369,5.06962531 40.1449147,5.24364419 40.0873683,5.42534907 C40.0310043,5.60291534 39.9188675,5.73456269 39.7513522,5.82009406 C39.5840339,5.90562542 39.4102121,5.91981496 39.2306751,5.86266266 C39.0468023,5.80432791 38.9120018,5.69258532 38.8266675,5.52664659 C38.7413332,5.36090493 38.7267495,5.18925097 38.7833106,5.01148763 C38.8394775,4.83411844 38.9506288,4.70109155 39.1165676,4.6128011 Z M35.4783313,12.6200346 C35.9387029,12.7205438 36.2447633,12.7341422 36.3967096,12.6614208 C36.5486558,12.5886994 36.7017846,12.3094415 36.8557016,11.8238441 L37.7983203,8.85448674 C37.8836546,8.58488557 37.9240554,8.39214439 37.9195226,8.27646026 C37.9108512,8.08628107 37.8062034,7.95956064 37.6055791,7.89590481 C37.5594631,7.88132112 37.5131501,7.8712702 37.466837,7.86555497 C37.4203269,7.86003682 37.2831614,7.85294205 37.0559317,7.8448619 L37.1170256,7.65172656 L37.4144146,7.65014994 C38.2208531,7.64581425 38.7872521,7.62925979 39.1140056,7.60028949 C39.2468354,7.58767657 39.3298047,7.58649411 39.3635049,7.59733334 C39.3625195,7.62906272 39.3568043,7.66138332 39.3463592,7.69468932 L37.9279969,12.1641958 C37.7776272,12.6371803 37.741168,12.9521092 37.8178309,13.1089824 C37.8944938,13.2658556 38.1303949,13.4250937 38.5253369,13.5870909 L38.4699583,13.7613068 L35.4229527,12.7942506 L35.4783313,12.6200346 Z M43.5411799,9.5647321 L41.3351014,13.115072 C41.1790165,13.3665421 41.0889524,13.5900273 41.0655002,13.7855276 C41.0286468,14.1522877 41.1947826,14.4502679 41.5635135,14.6792712 C41.8167573,14.8365386 42.116117,14.9072892 42.4615928,14.8913259 C42.656896,14.8846253 42.8756513,14.8438304 43.11845,14.7689412 L45.0072348,11.7290304 C45.184407,11.4444514 45.2445154,11.2229369 45.1877573,11.0646842 C45.1311962,10.9066286 44.9412141,10.7142815 44.6174168,10.487249 L44.7311301,10.3041645 L46.535566,11.425532 L44.1091555,15.3308074 C43.9528735,15.5822775 43.8909914,15.783493 43.9237062,15.9344539 C43.9562239,16.0854147 44.123345,16.2468207 44.4244785,16.4184747 L44.3281079,16.5739683 C44.0884624,16.5020353 43.9118816,16.450007 43.7979711,16.4174893 C43.6836665,16.3849716 43.490137,16.3353082 43.2169885,16.268105 C43.0993336,16.2411055 42.8376155,16.188683 42.4318342,16.1108377 C42.4131119,16.0992101 42.4071996,16.0840352 42.4139002,16.0649188 C42.4204037,16.0459994 42.4306517,16.0255034 42.4446442,16.0032337 L42.9992185,15.1102784 C42.5599342,15.2523708 42.1910063,15.3308074 41.893026,15.3453911 C41.4383697,15.3704198 41.0343621,15.2732609 40.680412,15.0533231 C40.3564176,14.8521076 40.1222903,14.5476239 39.9782271,14.1396747 C39.8280545,13.7333022 39.9187099,13.2634709 40.2499961,12.7301809 L42.0412278,9.8477345 C42.2233269,9.55408995 42.2820558,9.318386 42.2170204,9.14062266 C42.1738606,9.02730345 42.02625,8.87456887 41.7739916,8.68202476 L41.8705593,8.52672818 L43.5411799,9.5647321 Z M46.0304186,16.1456414 L46.1876859,16.2952228 C45.9184789,16.7242592 45.7539197,17.0937783 45.6944025,17.4035832 C45.5799008,17.9680113 45.7365769,18.4536088 46.1644308,18.8609667 C46.4021056,19.0870138 46.651999,19.200333 46.9145054,19.2007272 C47.1768148,19.2011214 47.4071976,19.0972618 47.605457,18.8891487 C47.7315862,18.756713 47.8133731,18.5911684 47.8512118,18.3925149 C47.8886564,18.1940585 47.8630365,17.9412089 47.7741548,17.633966 L47.5287941,16.8235859 C47.33625,16.2435886 47.2483537,15.7601591 47.2651052,15.3734942 C47.2820538,14.9866323 47.4271024,14.6498279 47.700251,14.362884 C48.036267,14.0097222 48.4396834,13.8404332 48.9097118,13.855214 C49.3799372,13.8701918 49.8071999,14.060371 50.1914998,14.4261457 C50.3600005,14.5863692 50.5151,14.7940882 50.6566012,15.0491057 C50.7981024,15.3041232 50.881663,15.4436536 50.9070859,15.4680911 C50.9644353,15.5224844 51.0131133,15.5538196 51.053514,15.5622939 C51.0941119,15.5707682 51.1402279,15.5666296 51.1922561,15.5500751 L51.3065607,15.6590586 L50.0836987,17.0104148 L49.9358911,16.869899 C50.1637119,16.5035331 50.3046219,16.1836773 50.358818,15.9107258 C50.4618892,15.4077856 50.327877,14.9795376 49.95619,14.6259816 C49.7340843,14.414124 49.4946359,14.3157826 49.238436,14.3303663 C48.982236,14.34495 48.7674222,14.4438826 48.5932063,14.6267699 C48.3171016,14.9170642 48.290102,15.3841364 48.5122077,16.0283807 L48.8214213,16.9627222 C49.1495543,17.9727412 49.0827453,18.7204508 48.6206,19.2060483 C48.2662557,19.5781294 47.836234,19.7489951 47.3305347,19.7182511 C46.8246384,19.6877042 46.3449533,19.4567301 45.8916764,19.0251317 C45.7014973,18.844018 45.5158508,18.6073287 45.3347372,18.3146696 C45.1540177,18.0222075 45.0412897,17.8548892 44.9969474,17.8127147 C44.9589116,17.7764526 44.9127956,17.7583215 44.8587965,17.7579274 C44.8046004,17.7573361 44.7517838,17.7685695 44.6997555,17.7914304 L44.5759912,17.6735785 L46.0304186,16.1456414 Z" id="Combined-Shape" fill="#FFFFFF"></path>
        </g>
    </g>
</svg>